<svg xmlns="http://www.w3.org/2000/svg" width="100" height="100" id="linkedin"><path d="M95 59.727V93H75.71V61.955c0-7.799-2.79-13.121-9.773-13.121-5.33 0-8.502 3.587-9.897 7.056-.509 1.241-.64 2.967-.64 4.704V93H36.104s.26-52.58 0-58.028h19.295v8.225c-.039.062-.09.128-.127.188h.127v-.188c2.563-3.948 7.141-9.588 17.388-9.588C85.483 33.609 95 41.903 95 59.727zM15.919 7C9.318 7 5 11.33 5 17.024c0 5.57 4.193 10.031 10.663 10.031h.129c6.729 0 10.914-4.46 10.914-10.031C26.579 11.33 22.521 7 15.919 7zM6.146 93h19.289V34.972H6.146V93z"></path></svg>